# xmcd CD database file
#
# Track frame offsets:
#	150
#	16724
#	38899
#	77939
#	96248
#	122545
#	139424
#	151840
#	177756
#	191669
#	206878
#	218923
#
# Disc length: 3130 seconds
#
# Revision: 0
# Processed by: cddbd v1.4PL0 Copyright (c) Steve Scherf et al.
# Submitted via: CDex 1.50
#
DISCID=a30c380c
DTITLE=Jonathan Pugh - My 50-50 World
DYEAR=1900
DGENRE=Jazz
TTITLE0=I Love Those
TTITLE1=Words
TTITLE2=Speak Low
TTITLE3=I Have Dreamed
TTITLE4=Free Indeed
TTITLE5=Cathy Doll
TTITLE6=Break Bread
TTITLE7=Just The Way You Are
TTITLE8=Smooth
TTITLE9=Do Not Seek
TTITLE10=Never Never Land
TTITLE11=Battle Hymn
EXTD=
EXTT0=
EXTT1=
EXTT2=
EXTT3=
EXTT4=
EXTT5=
EXTT6=
EXTT7=
EXTT8=
EXTT9=
EXTT10=
EXTT11=
PLAYORDER=
